# xmcd
#
# Track frame offsets:
#	150
#	23817
#	36548
#	51696
#	79353
#	92760
#	105898
#	129035
#	142743
#	163484
#
# Disc length: 2359 seconds
#
# Revision: 1
# Processed by: cddbd v1.5.1PL0 Copyright (c) Steve Scherf et al.
# Submitted via: audiograbber 1.83.01
#
DISCID=8209350a
DTITLE=Otis Span - The Biggest Thing Since Colossus
DYEAR=1900
DGENRE=Blues
TTITLE0=My Love Depends On You
TTITLE1=Walkin'
TTITLE2=It Was A Big Thing
TTITLE3=Temperature Is Rising
TTITLE4=Dig You
TTITLE5=No More Doggin'
TTITLE6=Ain't Nobody's Business
TTITLE7=She Needs Some Loving
TTITLE8=I Need Some Air
TTITLE9=Someday baby
EXTD=
EXTT0=
EXTT1=
EXTT2=
EXTT3=
EXTT4=
EXTT5=
EXTT6=
EXTT7=
EXTT8=
EXTT9=
PLAYORDER=
